<svg width="40" height="40" viewBox="0 0 40 40" fill="none" xmlns="http://www.w3.org/2000/svg">
<rect x="0.5" y="0.5" width="39" height="39" rx="19.5" fill="#469BFF"/>
<path d="M17.7501 21C17.7501 19.7574 18.7574 18.75 20.0001 18.75C21.2427 18.75 22.2501 19.7574 22.2501 21C22.2501 22.2426 21.2427 23.25 20.0001 23.25C18.7574 23.25 17.7501 22.2426 17.7501 21Z" fill="white"/>
<path fill-rule="evenodd" clip-rule="evenodd" d="M15.4737 15.6424C15.4737 13.9069 16.8806 12.5 18.6162 12.5H21.3839C23.1194 12.5 24.5264 13.9069 24.5264 15.6424C24.5264 15.6573 24.5377 15.6696 24.5525 15.6708L26.7821 15.8519C27.7809 15.933 28.6022 16.6716 28.7886 17.6561C29.2643 20.1684 29.2998 22.7443 28.8935 25.2687L28.7962 25.8729C28.6129 27.0118 27.6755 27.8783 26.5257 27.9717L24.5834 28.1294C21.5328 28.3772 18.4672 28.3772 15.4167 28.1294L13.4743 27.9717C12.3245 27.8783 11.3872 27.0118 11.2039 25.8729L11.1066 25.2687C10.7003 22.7443 10.7357 20.1684 11.2114 17.6561C11.3978 16.6716 12.2192 15.933 13.2179 15.8519L15.4475 15.6708C15.4623 15.6696 15.4737 15.6573 15.4737 15.6424ZM20.0001 17.25C17.929 17.25 16.2501 18.9289 16.2501 21C16.2501 23.0711 17.929 24.75 20.0001 24.75C22.0711 24.75 23.7501 23.0711 23.7501 21C23.7501 18.9289 22.0711 17.25 20.0001 17.25Z" fill="white"/>
<rect x="0.5" y="0.5" width="39" height="39" rx="19.5" stroke="#469BFF"/>
</svg>
