<svg width="22" height="23" viewBox="0 0 22 23" fill="none" xmlns="http://www.w3.org/2000/svg">
<path d="M17.8 9.73999V19.4C17.8 19.6757 17.7456 19.9488 17.6401 20.2036C17.5346 20.4584 17.3799 20.6899 17.1849 20.8849C16.9899 21.0799 16.7584 21.2346 16.5036 21.3401C16.2488 21.4456 15.9757 21.5 15.7 21.5H3.09999C2.54304 21.5 2.0089 21.2787 1.61507 20.8849C1.22125 20.4911 1 19.9569 1 19.4V6.8C1 6.24305 1.22125 5.7089 1.61507 5.31508C2.0089 4.92125 2.54304 4.7 3.09999 4.7H11.8927" stroke="#469BFF" stroke-width="1.5" stroke-linecap="round" stroke-linejoin="round"/>
<path d="M21.7869 0.77564C21.7102 0.691347 21.6172 0.623482 21.5135 0.576148C21.4098 0.528814 21.2976 0.502993 21.1837 0.500245C21.0698 0.497497 20.9564 0.517879 20.8506 0.56016C20.7448 0.602441 20.6486 0.665743 20.5679 0.74624L19.9185 1.39251C19.8398 1.47127 19.7955 1.57806 19.7955 1.6894C19.7955 1.80074 19.8398 1.90753 19.9185 1.98629L20.5138 2.58058C20.5528 2.61979 20.5992 2.6509 20.6503 2.67213C20.7014 2.69336 20.7562 2.70429 20.8115 2.70429C20.8668 2.70429 20.9216 2.69336 20.9727 2.67213C21.0238 2.6509 21.0701 2.61979 21.1092 2.58058L21.7423 1.95059C22.0626 1.63086 22.0925 1.11006 21.7869 0.77564ZM18.6054 2.70501L9.12817 12.1655C9.07071 12.2227 9.02895 12.2938 9.0069 12.3718L8.56852 13.6775C8.55802 13.7129 8.55728 13.7505 8.56637 13.7863C8.57546 13.8221 8.59405 13.8548 8.62018 13.881C8.64631 13.9071 8.67901 13.9257 8.71482 13.9348C8.75064 13.9439 8.78824 13.9431 8.82367 13.9326L10.1283 13.4943C10.2063 13.4722 10.2774 13.4304 10.3346 13.373L19.7951 3.89466C19.8826 3.80619 19.9317 3.68678 19.9317 3.56233C19.9317 3.43789 19.8826 3.31847 19.7951 3.23001L19.2727 2.70501C19.1841 2.61669 19.0642 2.56709 18.9391 2.56709C18.814 2.56709 18.694 2.61669 18.6054 2.70501Z" fill="#469BFF"/>
</svg>
