<svg width="53" height="58" viewBox="0 0 53 58" fill="none" xmlns="http://www.w3.org/2000/svg">
<path d="M36.264 4.21792C33.7848 1.49789 30.322 0 26.5 0C22.6576 0 19.1834 1.48883 16.7157 4.19203C14.2212 6.925 13.0058 10.6393 13.2911 14.6501C13.8568 22.5629 19.7822 28.9998 26.5 28.9998C33.2178 28.9998 39.133 22.5642 39.7076 14.6527C39.9968 10.6782 38.7737 6.97161 36.264 4.21792ZM48.9225 57.9997H4.07754C3.49056 58.0074 2.90926 57.8821 2.37593 57.6329C1.84261 57.3836 1.37067 57.0167 0.994451 56.5587C0.166349 55.5528 -0.16744 54.1792 0.0797169 52.79C1.15498 46.7286 4.5107 41.6368 9.78508 38.0623C14.4709 34.8891 20.4064 33.1427 26.5 33.1427C32.5936 33.1427 38.5291 34.8904 43.2149 38.0623C48.4893 41.6355 51.845 46.7273 52.9203 52.7888C53.1674 54.1779 52.8336 55.5515 52.0055 56.5574C51.6295 57.0156 51.1576 57.3828 50.6242 57.6323C50.0909 57.8817 49.5095 58.0073 48.9225 57.9997Z" fill="#CDCDCD"/>
</svg>
